<?xml version="1.0" standalone="no"?>
<!DOCTYPE svg PUBLIC "-//W3C//DTD SVG 20010904//EN"
 "http://www.w3.org/TR/2001/REC-SVG-20010904/DTD/svg10.dtd">
<svg version="1.0" xmlns="http://www.w3.org/2000/svg"
 width="7863.000000pt" height="2391.000000pt" viewBox="0 0 7863.000000 2391.000000"
 preserveAspectRatio="xMidYMid meet">

<g transform="translate(0.000000,2391.000000) scale(0.100000,-0.100000)"
fill="#000000" stroke="none">
<path d="M30957 23899 c-294 -29 -654 -120 -962 -244 -129 -52 -305 -131 -305
-137 0 -2 82 -4 181 -5 619 -7 1277 -148 1914 -409 134 -56 489 -228 568 -277
l38 -23 -223 -138 c-1357 -840 -2982 -1894 -4093 -2656 l-310 -213 -4585
-1669 -4585 -1670 -200 11 c-636 36 -1390 96 -2044 162 l-394 39 -296 -50
c-1942 -333 -3418 -609 -4491 -840 -2996 -647 -5266 -1414 -7425 -2509 -1455
-739 -2208 -1226 -2796 -1811 -537 -533 -836 -1065 -924 -1645 -23 -145 -30
-407 -16 -555 35 -367 162 -763 358 -1116 201 -363 520 -772 788 -1010 97 -86
179 -185 245 -294 176 -292 187 -597 35 -900 -73 -146 -130 -219 -320 -415
-138 -142 -143 -153 -144 -306 -5 -551 652 -1044 1859 -1395 1255 -366 3030
-575 5470 -644 797 -23 2932 -21 2956 2 3 3 -4 24 -15 47 -12 22 -21 43 -21
46 0 3 149 4 331 3 l332 -3 68 -112 c258 -424 558 -809 919 -1177 659 -672
1402 -1167 2275 -1518 1336 -537 2873 -611 4276 -207 1404 403 2663 1287 3511
2464 134 187 405 610 421 660 6 16 897 20 897 4 0 -7 -12 -51 -26 -97 -14 -46
-24 -86 -22 -88 9 -8 3722 -48 6908 -74 5148 -42 8335 -53 13045 -47 3876 5
4899 11 6930 37 2728 35 4743 90 6095 165 267 15 863 56 867 59 1 1 -6 31 -17
67 -32 105 -46 99 163 72 100 -12 321 -39 492 -58 170 -20 313 -39 317 -43 4
-4 45 -70 91 -147 930 -1559 2478 -2673 4253 -3060 770 -167 1584 -195 2383
-79 1941 279 3679 1441 4696 3139 43 72 78 131 79 132 1 0 116 15 256 33 140
17 381 49 535 71 154 22 287 41 295 42 12 2 14 -7 12 -35 l-4 -38 169 0 c693
1 1356 149 1881 420 241 125 432 261 616 440 305 296 520 661 641 1090 17 61
125 721 298 1820 l273 1724 397 321 397 320 0 2211 0 2211 -715 488 c-437 299
-715 495 -715 505 0 8 38 157 85 330 47 173 126 465 176 649 49 183 91 336 93
340 3 3 776 598 1719 1321 l1715 1315 -206 6 c-114 4 -1116 12 -2227 18 -1111
6 -2069 13 -2130 16 l-110 5 -790 -443 -790 -443 -140 32 c-623 143 -1824 392
-2760 574 -3396 658 -6383 1075 -8625 1205 -580 33 -1238 53 -2070 62 -405 5
-823 -5 -1125 -27 -82 -6 -183 -4 -320 5 -1603 111 -3244 189 -4940 236 -648
17 -2307 23 -2943 10 -321 -7 -585 -11 -587 -9 -2 2 3 35 11 73 47 222 65 495
45 673 -41 371 -155 611 -419 879 -282 285 -630 483 -1139 649 -920 298 -1757
-122 -2420 -1218 -160 -264 -343 -646 -443 -928 l-40 -110 -210 -258 -210
-258 -182 -22 c-101 -12 -388 -46 -638 -76 -4197 -507 -8464 -845 -12265 -971
-1045 -34 -2365 -59 -2885 -53 l-285 3 305 240 c1873 1477 3720 2679 5475
3562 193 97 380 195 416 218 176 113 218 231 128 362 -60 87 -230 200 -459
304 -200 92 -503 213 -656 263 -334 108 -942 247 -1544 351 -216 37 -310 41
-493 24z m34128 -12509 c1484 -109 2809 -888 3621 -2130 406 -622 656 -1327
740 -2095 25 -222 25 -746 1 -965 -102 -919 -427 -1723 -986 -2440 -165 -212
-464 -522 -671 -695 -721 -602 -1559 -961 -2511 -1076 -156 -19 -235 -23 -524
-23 -373 0 -506 10 -819 64 -1601 275 -2953 1366 -3564 2877 -302 744 -408
1573 -306 2378 235 1855 1552 3398 3348 3925 287 85 609 146 886 170 69 5 141
12 160 14 85 8 498 5 625 -4z m-47015 -35 c1115 -121 2113 -605 2890 -1401
1144 -1173 1596 -2856 1195 -4454 -333 -1327 -1235 -2450 -2462 -3064 -992
-496 -2151 -628 -3228 -366 -727 176 -1389 514 -1964 1003 -141 120 -413 394
-532 537 -651 779 -1017 1676 -1100 2695 -15 187 -6 706 15 885 132 1091 594
2049 1356 2810 800 801 1864 1286 3000 1369 177 13 657 5 830 -14z"/>
<path d="M64540 10783 c-119 -5 -365 -33 -486 -54 -140 -24 -343 -68 -363 -79
-9 -5 158 -163 550 -520 310 -282 573 -522 584 -534 11 -11 124 -115 250 -230
127 -115 244 -223 262 -239 l31 -29 239 55 c961 225 1996 467 2000 467 7 0
-134 130 -227 207 -793 666 -1799 1005 -2840 956z"/>
<path d="M62701 10244 c-699 -402 -1274 -1012 -1634 -1731 -227 -452 -370
-957 -417 -1471 -7 -73 -10 -135 -7 -138 5 -6 193 100 1449 814 507 288 538
307 543 336 3 17 23 247 45 511 94 1121 140 1663 144 1703 3 23 2 42 -2 42 -4
0 -58 -30 -121 -66z"/>
<path d="M68166 8883 c-10 -21 -186 -409 -391 -863 -206 -454 -412 -908 -458
-1009 l-84 -184 95 -156 c53 -86 320 -527 595 -981 274 -454 500 -827 503
-829 5 -6 85 168 138 301 130 329 213 660 263 1043 28 219 26 760 -5 985 -67
495 -193 903 -412 1339 -67 134 -196 360 -219 384 -4 4 -15 -10 -25 -30z"/>
<path d="M64487 8654 c-521 -81 -976 -350 -1286 -762 -287 -380 -432 -868
-393 -1329 41 -480 223 -886 547 -1222 173 -179 351 -307 567 -410 273 -131
543 -191 848 -191 372 0 713 95 1029 286 578 351 941 999 941 1679 0 573 -260
1137 -689 1497 -296 248 -627 397 -1002 452 -132 20 -438 20 -562 0z"/>
<path d="M60697 5953 c34 -199 112 -486 185 -683 207 -557 508 -1034 918
-1454 342 -350 670 -591 1095 -806 167 -85 365 -173 373 -166 1 2 -40 209 -92
462 -53 252 -156 756 -231 1119 -75 363 -139 663 -143 667 -4 3 -281 122 -617
263 -1299 546 -1461 614 -1476 620 -13 5 -16 1 -12 -22z"/>
<path d="M65369 4027 c-152 -177 -344 -401 -427 -497 -82 -96 -294 -341 -470
-545 -290 -335 -318 -371 -297 -376 121 -34 754 -47 990 -21 571 63 1113 237
1595 510 410 232 804 556 1103 906 65 77 77 96 57 96 -5 0 -512 56 -1127 125
-615 69 -1125 125 -1133 124 -8 0 -139 -145 -291 -322z"/>
<path d="M17355 10760 c-168 -9 -382 -34 -525 -61 -162 -31 -321 -70 -318 -79
2 -4 261 -243 577 -531 315 -288 692 -633 838 -766 146 -134 271 -243 278
-243 7 0 147 32 311 70 165 39 657 154 1094 256 437 102 802 187 810 190 17 7
-86 107 -237 231 -476 392 -1030 670 -1627 818 -384 95 -819 137 -1201 115z"/>
<path d="M15540 10228 c-1196 -691 -1965 -1904 -2066 -3257 -7 -89 -6 -94 11
-87 10 4 199 109 419 235 221 126 424 241 451 256 28 15 287 162 577 327 l527
300 6 42 c3 22 46 525 95 1116 49 591 91 1087 93 1103 2 15 1 27 -2 27 -3 -1
-53 -28 -111 -62z"/>
<path d="M20997 8869 c-14 -33 -717 -1585 -860 -1898 -39 -85 -70 -160 -70
-165 0 -6 62 -112 138 -236 76 -124 340 -560 588 -970 247 -410 453 -749 458
-754 16 -17 153 307 229 540 87 269 139 507 177 814 25 204 25 713 -1 920 -77
632 -282 1214 -606 1724 l-38 60 -15 -35z"/>
<path d="M17436 8589 c-435 -36 -863 -228 -1180 -529 -327 -311 -539 -734
-596 -1190 -13 -109 -13 -342 1 -450 76 -613 423 -1148 947 -1457 203 -120
466 -213 705 -250 137 -20 411 -23 547 -4 964 132 1690 960 1690 1927 0 1032
-774 1870 -1805 1954 -141 11 -164 11 -309 -1z"/>
<path d="M13526 5953 c-6 -6 22 -147 60 -295 313 -1255 1213 -2298 2413 -2799
52 -22 95 -38 97 -37 2 3 -137 685 -359 1756 l-102 494 -565 237 c-1327 559
-1540 648 -1544 644z"/>
<path d="M18199 4007 c-152 -177 -344 -401 -427 -497 -82 -96 -294 -341 -470
-545 -272 -314 -318 -371 -301 -377 10 -4 96 -15 191 -24 234 -22 685 -15 903
15 898 122 1688 503 2334 1126 116 112 331 350 331 366 0 5 -6 9 -13 9 -8 0
-520 56 -1139 125 -620 69 -1128 125 -1130 124 -1 0 -127 -145 -279 -322z"/>
</g>
</svg>
